<?xml version="1.0" encoding="UTF-8" standalone="no"?>
<!-- Created with Inkscape (http://www.inkscape.org/) -->

<svg
   version="1.1"
   id="svg1331"
   width="1920"
   height="1057"
   viewBox="0 0 1920 1057"
   sodipodi:docname="logomorLogo.svg"
   inkscape:version="1.1 (c68e22c387, 2021-05-23)"
   inkscape:export-filename="C:\Users\ckar9\Desktop\LogomorLogo\logomorLogo.png"
   inkscape:export-xdpi="96"
   inkscape:export-ydpi="96"
   xmlns:inkscape="http://www.inkscape.org/namespaces/inkscape"
   xmlns:sodipodi="http://sodipodi.sourceforge.net/DTD/sodipodi-0.dtd"
   xmlns="http://www.w3.org/2000/svg"
   xmlns:svg="http://www.w3.org/2000/svg">
  <defs
     id="defs1335" />
  <sodipodi:namedview
     id="namedview1333"
     pagecolor="#ffffff"
     bordercolor="#666666"
     borderopacity="1.0"
     inkscape:pageshadow="2"
     inkscape:pageopacity="0.0"
     inkscape:pagecheckerboard="0"
     showgrid="false"
     inkscape:zoom="0.57916667"
     inkscape:cx="543.02158"
     inkscape:cy="667.33813"
     inkscape:window-width="1920"
     inkscape:window-height="1137"
     inkscape:window-x="-8"
     inkscape:window-y="-8"
     inkscape:window-maximized="1"
     inkscape:current-layer="g1904" />
  <g
     inkscape:groupmode="layer"
     inkscape:label="Image"
     id="g1337">
    <g
       id="g1904"
       transform="translate(-6.9064805,0.30930583)">
      <path
         style="fill:#37bbb9;stroke:#00fffb;stroke-opacity:1;stroke-width:2;stroke-miterlimit:4;stroke-dasharray:none"
         d="m 1139.6277,789.47662 c -0.01,-27.97693 1.687,-214.61113 2.3672,-261 0.2689,-18.33808 0.063,-27.75 -0.6061,-27.75 -0.5571,0 -26.9426,11.43424 -58.6343,25.40941 -211.19923,93.13293 -253.41528,111.63005 -253.82914,111.21619 -0.25565,-0.25565 -0.5385,-38.36612 -0.62855,-84.68992 l -0.16372,-84.2251 237.50001,-102.7315 c 130.625,-56.50233 237.605,-102.64467 237.7334,-102.53854 0.3726,0.30804 -8.6299,481.78928 -9.0155,482.17486 -0.532,0.53202 -153.5304,70.3846 -154.1637,70.3846 -0.3048,0 -0.5566,-11.8125 -0.5596,-26.25 z M 600.25226,761.52996 c -0.32361,-6.76684 -1.71255,-71.02834 -3.08655,-142.80334 -1.37399,-71.775 -2.7609,-136.97215 -3.08203,-144.88256 -0.4886,-12.03614 -0.3571,-14.29554 0.80605,-13.8492 1.56689,0.60127 159.337,121.06732 161.87684,123.60175 1.46018,1.45708 1.69996,7.94264 2.26011,61.13001 l 0.62664,59.5 -78.1413,34.5 c -42.97771,18.975 -78.71056,34.6365 -79.40634,34.80334 -0.94458,0.2265 -1.4141,-2.81337 -1.85342,-12 z"
         id="path1914" />
      <path
         style="fill:#2c9694;stroke:#00fffb;stroke-opacity:1;stroke-width:2;stroke-miterlimit:4;stroke-dasharray:none"
         d="m 542.27284,728.09924 -57.63975,-45.68122 -0.0376,-8.0957 c -0.0207,-4.45263 -2.89056,-112.2707 -6.37748,-239.5957 -3.48691,-127.325 -6.20469,-231.65279 -6.03951,-231.83954 0.16518,-0.18674 80.09754,59.59322 177.62746,132.84437 l 177.32713,133.18391 0.67621,84.14609 c 0.37191,46.28035 0.58988,84.23241 0.48438,84.33791 -0.2124,0.2124 -29.43201,-22.03006 -150.44989,-114.52498 -44.86901,-34.29374 -82.15232,-62.57186 -82.8518,-62.84028 -1.01417,-0.38917 -1.16182,3.6321 -0.72892,19.85225 1.04976,39.33275 6.1588,293.34353 5.90567,293.61719 -0.14088,0.1523 -26.19404,-20.27963 -57.8959,-45.4043 z"
         id="path1912" />
      <path
         style="fill:#278382;stroke:#00fffb;stroke-opacity:1;stroke-width:2;stroke-miterlimit:4;stroke-dasharray:none"
         d="m 1077.9244,769.90566 -60.1839,-45.67904 -0.3037,-84.66685 c -0.167,-46.56676 -0.1774,-84.54048 -0.023,-84.38603 0.1544,0.15444 28.0544,-11.9738 62,-26.95165 l 61.7194,-27.23245 0.3047,4.93756 c 0.3521,5.70708 -2.6426,308.97061 -3.0551,309.38318 -0.1509,0.15088 -27.3571,-20.28125 -60.4583,-45.40472 z"
         id="path1910" />
      <path
         style="fill:#a63434;stroke:none;stroke-opacity:1;stroke-width:2;stroke-miterlimit:4;stroke-dasharray:none;fill-opacity:1"
         d="m 649.63309,335.09942 c -97.075,-72.86509 -176.6084,-132.79491 -176.74089,-133.17739 -0.13248,-0.38247 36.18531,-15.68292 80.70621,-34.00099 l 80.9471,-33.30559 116.60921,85.59493 116.60921,85.59494 153.18457,-65.18315 c 84.2515,-35.85073 154.1711,-65.39093 155.3769,-65.64489 1.6606,-0.34976 17.3235,10.1854 64.5792,43.43728 l 62.3868,43.89903 -237.5791,102.71806 c -130.66858,56.49494 -238.02921,102.6802 -238.57921,102.63391 -0.55,-0.0463 -80.425,-59.70106 -177.5,-132.56614 z"
         id="path1908" />
    </g>
  </g>
</svg>
